<?xml version="1.0" standalone="no"?>
<!DOCTYPE svg PUBLIC "-//W3C//DTD SVG 20010904//EN"
 "http://www.w3.org/TR/2001/REC-SVG-20010904/DTD/svg10.dtd">
<svg version="1.0" xmlns="http://www.w3.org/2000/svg"
 width="280.000000pt" height="280.000000pt" viewBox="0 0 280.000000 280.000000"
 preserveAspectRatio="xMidYMid meet">

<g transform="translate(0.000000,280.000000) scale(0.100000,-0.100000)"
fill="#000000" stroke="none">
<path d="M13 1998 c3 -777 4 -806 24 -888 71 -283 189 -496 383 -690 200 -201
460 -337 735 -384 133 -23 386 -21 511 4 287 57 515 179 719 384 215 217 342
465 391 766 20 117 14 387 -11 497 -134 609 -624 1042 -1246 1102 -72 7 -378
11 -812 11 l-698 0 4 -802z m899 -73 c42 -110 77 -206 78 -213 0 -8 -9 -12
-22 -10 -16 2 -27 18 -45 68 l-24 65 -92 -2 -92 -1 -24 -62 c-13 -34 -30 -64
-38 -67 -39 -15 -31 21 48 221 79 200 83 207 108 204 24 -3 32 -19 103 -203z
m362 191 c42 -18 66 -51 66 -94 0 -39 -23 -87 -45 -96 -15 -5 -14 -9 4 -31 12
-16 22 -49 26 -83 3 -31 8 -67 11 -79 4 -19 0 -23 -21 -23 -27 0 -29 6 -40
100 -3 30 -11 60 -17 67 -7 9 -39 13 -94 13 l-84 0 0 -90 c0 -89 0 -90 -25
-90 l-25 0 0 210 0 210 105 0 c68 0 118 -5 139 -14z m411 -6 c0 -12 -21 -16
-117 -18 l-118 -3 0 -69 0 -70 105 0 105 0 0 -25 0 -25 -105 0 -105 0 0 -75 0
-75 121 0 c119 0 120 0 117 -22 -3 -23 -5 -23 -143 -23 l-140 0 -3 213 -2 213
142 -3 c119 -3 143 -5 143 -18z m308 -183 c42 -111 77 -208 77 -215 0 -13 -19
-16 -36 -4 -6 4 -21 34 -33 67 l-22 60 -92 -2 -92 -1 -25 -64 c-19 -48 -30
-63 -45 -63 -11 0 -20 5 -20 10 0 6 36 101 79 213 75 191 81 202 105 202 25 0
31 -11 104 -203z m-72 -301 c114 -54 178 -163 166 -283 -6 -61 -43 -130 -84
-162 -27 -20 -27 -21 -8 -33 11 -6 36 -28 56 -49 106 -109 87 -324 -37 -439
-78 -71 -119 -85 -264 -85 -109 0 -131 3 -176 23 -63 29 -126 92 -154 153 -26
60 -42 169 -25 175 6 3 54 3 106 2 l94 -3 7 -48 c13 -94 62 -132 161 -125 53
4 64 8 92 40 73 79 46 218 -49 247 -17 5 -57 12 -89 16 l-58 7 3 76 3 77 65 6
c36 3 75 11 87 17 70 38 70 178 1 226 -25 18 -103 21 -142 6 -34 -13 -56 -49
-64 -107 l-7 -48 -100 0 -100 0 3 40 c11 141 93 251 214 291 29 9 76 13 143
11 84 -3 109 -8 156 -31z m-551 -67 l0 -81 -49 -62 c-188 -237 -292 -478 -328
-761 l-8 -60 -108 -3 -107 -3 0 51 c0 112 56 303 135 461 48 94 170 283 204
313 12 11 21 23 21 28 0 4 -115 8 -255 8 l-255 0 0 95 0 95 375 0 375 0 0 -81z"/>
<path d="M769 1979 l-36 -99 75 0 c67 0 73 2 67 18 -4 9 -20 53 -36 97 -17 44
-31 80 -32 81 -1 1 -18 -42 -38 -97z"/>
<path d="M1080 2016 l0 -76 76 0 c104 0 134 17 134 76 0 51 -28 67 -125 72
l-85 5 0 -77z"/>
<path d="M1848 1975 l-36 -95 75 0 c68 0 74 2 68 18 -4 9 -18 49 -32 87 -14
39 -29 74 -33 78 -4 4 -23 -35 -42 -88z"/>
</g>
</svg>
